<svg xmlns="http://www.w3.org/2000/svg">
        <symbol id="campfire" viewBox="0 0 885.79 947.36" alt="campfire">
            <title>campfire</title>
            <g>
                <path d="M263,559c23.61,9,57.29,8,73.06,8,52-.18,84.8-41.73,89.59-48,23-30.07,22.41-67,21.32-140.88-.53-36.22-4.77-59.89-14.93-82.43-5.88-13.06-14.41-27.23-18.13-33.4-13.37-22.2-22.31-32.57-30.92-44.87-31.39-44.8-35.69-82.61-41.6-81.39-5,1,2,27.64-3.2,69.91-4.63,37.87-16.42,67-24.53,86.62-9.36,22.68-14.8,35.87-26.66,52.17-18,24.82-27.34,24.41-45.86,50.09-9.5,13.18-21.63,30.37-26.66,55.31-2.81,13.94-8.6,41.31,6.4,64.69C233,533.78,230.87,546.82,263,559Z" transform="translate(-10.18 -16.79)"/>
                <path d="M415,196c24.95,40.89,27.83,36.77,42,63,7.66,14.18,24.3,45.6,31,89,2.94,19.05,2,40,0,82-1.93,41.37-1,50-12,79-8.87,23.37,0,0-15,33-7.67,16.86,17,33.86,27,40,40.41,24.82,118.73-10.58,163-59,3.47-3.8,67.77-76.35,52-168C685,250.44,573.1,180.83,538,159c-27.69-17.22-50.57-26.68-79-56-41.75-43-57.43-89.72-69-86-1.54.5-4.84,2.48-8,44-2.45,32.26-3.68,48.38-2,60C383.27,143.66,393.89,161.41,415,196Z" transform="translate(-10.18 -16.79)"/>
                <polygon points="726.99 727 873.63 681.96 824.02 520.41 458.12 632.77 726.99 727"/>
                <polygon points="420.79 627.87 420.82 627.76 71.48 508.05 17.11 666.73 829.78 946.13 829.65 946.51 832.15 947.36 885.79 790.83 420.79 627.87"/>
                <polygon points="0 773.45 49.61 935.01 433.14 817.23 161.53 723.85 0 773.45"/>
            </g>
        </symbol>
        <symbol id="compass" viewBox="0 0 1602 1734" alt="compass">
            <title>compass</title>
            <g>
              <path d="M935.94,155.94C979,142.17,1007,119.56,1007,94c0-42-75.66-76-169-76S669,52,669,94c0,25.56,28,48.17,71.06,61.94C343.88,204.24,37,541.78,37,951c0,442.38,358.62,801,801,801s801-358.62,801-801C1639,541.78,1332.12,204.24,935.94,155.94ZM837.5,1649C451.73,1649,139,1336.27,139,950.5S451.73,252,837.5,252,1536,564.73,1536,950.5,1223.27,1649,837.5,1649Z" transform="translate(-37 -18)"/>
              <polygon points="966.58 861.01 987.57 750.89 872.13 767.77 800.69 311.1 739.41 768.63 619.75 748.9 646.18 863.08 218.33 934.91 647.04 995.8 627.26 1113.33 741.49 1089.03 800.69 1523.64 874.2 1088.17 995.01 1112.13 967.43 993.72 1381.98 932.78 966.58 861.01"/>
            </g>
        </symbol>
        <symbol id="forest" viewBox="0 0 624.38 490.64" alt="forest">
            <title>forest</title>
            <g>
              <polygon points="328.56 300.64 401.22 300.64 313.33 199.64 384.22 199.64 298.22 106.64 352.22 106.64 219.22 0.64 85.22 106.64 129.56 106.64 144.25 106.64 52.22 199.64 110.92 199.64 124.44 199.64 24.22 300.64 114.27 300.64 1.22 411.64 176.22 411.64 176.22 489.64 261.22 489.64 261.22 411.64 433.22 411.64 328.56 300.64" stroke="#000" stroke-miterlimit="10"/>
              <polygon points="623.22 418.64 518.56 307.64 591.22 307.64 503.33 206.64 574.22 206.64 488.22 113.64 542.22 113.64 409.22 7.64 323.4 75.53 371.22 113.64 323.72 115.14 403.22 206.64 332.33 206.64 420.22 307.64 347.56 307.64 451.75 418.14 377.72 418.14 377.72 490.14 462.72 490.14 462.72 418.64 623.22 418.64" stroke="#000" stroke-miterlimit="10"/>
            </g>
        </symbol>
        <symbol id="lantern" viewBox="0 0 295 549" alt="lantern">
            <title>lantern</title>
            <g>
              <path d="M308.75,149A147.5,147.5,0,1,0,15,174.61V247H31.73L69.38,461H55v98H268V461H257.86l31-214H309V149ZM161.5,51a106.5,106.5,0,0,1,106.16,98H55.34A106.5,106.5,0,0,1,161.5,51Zm90.3,410H75.47L37.83,247H282.77Z" transform="translate(-14 -10)"/>
              <path d="M112.25,436.09c6,2.89,14.6,2.6,18.62,2.58,13.25-.05,21.6-13.47,22.82-15.5,5.85-9.71,5.72-21.63,5.44-45.49-.14-11.7-1.22-19.34-3.81-26.62-1.49-4.22-3.67-8.79-4.62-10.78-3.4-7.17-5.68-10.52-7.88-14.49-8-14.47-9.09-26.68-10.59-26.29-1.29.34.5,8.93-.82,22.58a124.9,124.9,0,0,1-6.25,28c-2.39,7.33-3.77,11.58-6.79,16.85-4.6,8-7,7.88-11.69,16.17-2.42,4.26-5.51,9.81-6.79,17.86-.72,4.5-2.19,13.34,1.63,20.89C104.61,427.94,104.06,432.16,112.25,436.09Z" transform="translate(-14 -10)"/>
              <path d="M151,318.87c6.36,13.2,7.09,11.87,10.7,20.34a103.05,103.05,0,0,1,7.9,28.74c.75,6.15.5,12.93,0,26.48-.49,13.36-.25,16.15-3.06,25.51-2.25,7.55,0,0-3.82,10.66-1.95,5.45,4.33,10.93,6.88,12.92,10.3,8,30.25-3.42,41.54-19.06.88-1.22,17.27-24.65,13.25-54.25-4.59-33.76-33.1-56.24-42.05-63.29-7-5.56-12.88-8.61-20.13-18.08-10.63-13.9-14.63-29-17.58-27.77-.39.16-1.23.8-2,14.21-.62,10.41-.93,15.62-.51,19.37C142.9,302,145.6,307.7,151,318.87Z" transform="translate(-14 -10)"/>
            </g>
        </symbol>
        <symbol id="tent" viewBox="0 0 583.52 428.87" alt="tent">
            <title>tent</title>
            <g>
              <polygon points="0 428.87 90.21 428.87 155.23 272.37 216.8 428.87 309.8 428.87 154.9 160.58 0 428.87"/>
              <rect x="227.52" y="64.91" width="305.92" height="313.07" transform="translate(-67.75 213.05) rotate(-30.3)"/>
            </g>
        </symbol>
    </svg>