<svg xmlns="http://www.w3.org/2000/svg">
    <symbol id="campfire" viewBox="0 0 30 32" alt="campfire">
      <title>campfire</title>
      <path d="M8.54 18.315c0.797 0.304 1.935 0.27 2.468 0.27 1.756-0.006 2.864-1.41 3.026-1.621 0.777-1.016 0.757-2.263 0.72-4.759-0.018-1.223-0.161-2.023-0.504-2.784-0.199-0.441-0.487-0.92-0.612-1.128-0.452-0.75-0.754-1.1-1.044-1.516-1.060-1.513-1.206-2.79-1.405-2.749-0.169 0.034 0.068 0.934-0.108 2.361-0.156 1.279-0.555 2.263-0.829 2.926-0.316 0.766-0.5 1.212-0.901 1.762-0.608 0.838-0.924 0.825-1.549 1.692-0.321 0.445-0.731 1.026-0.901 1.868-0.095 0.471-0.29 1.395 0.216 2.185 0.409 0.64 0.337 1.081 1.423 1.492z"></path>
      <path d="M13.674 6.053c0.843 1.381 0.94 1.242 1.419 2.128 0.259 0.479 0.821 1.54 1.047 3.006 0.099 0.643 0.068 1.351 0 2.77-0.065 1.397-0.034 1.689-0.405 2.668-0.3 0.789 0 0-0.507 1.115-0.259 0.57 0.574 1.144 0.912 1.351 1.365 0.838 4.010-0.357 5.506-1.993 0.117-0.128 2.289-2.579 1.756-5.675-0.608-3.532-4.388-5.883-5.573-6.62-0.935-0.582-1.708-0.901-2.668-1.892-1.41-1.452-1.94-3.031-2.331-2.905-0.052 0.017-0.164 0.084-0.27 1.486-0.083 1.090-0.124 1.634-0.068 2.027 0.11 0.765 0.469 1.365 1.182 2.533z"></path>
      <path d="M24.556 24.557l4.953-1.521-1.676-5.457-12.359 3.795 9.082 3.183z"></path>
      <path d="M14.213 21.208l0.001-0.004-11.8-4.044-1.837 5.36 27.53 9.479 1.812-5.287-15.707-5.504z"></path>
      <path d="M0 26.126l1.676 5.457 12.955-3.978-9.174-3.154-5.456 1.675z"></path>
      </symbol>

    <symbol id="compass" viewBox="0 0 30 32" alt="compass">
    <title>compass</title>
    <path d="M16.589 2.546c0.795-0.254 1.311-0.671 1.311-1.143 0-0.775-1.396-1.403-3.119-1.403s-3.119 0.627-3.119 1.403c0 0.472 0.517 0.889 1.311 1.143-7.311 0.891-12.975 7.12-12.975 14.672 0 8.164 6.618 14.782 14.782 14.782s14.782-6.618 14.782-14.782c0-7.552-5.663-13.781-12.975-14.672zM14.773 30.099c-7.119 0-12.89-5.771-12.89-12.89s5.771-12.89 12.89-12.89 12.89 5.771 12.89 12.89-5.771 12.89-12.89 12.89z"></path>
    <path d="M17.838 15.889l0.387-2.032-2.13 0.312-1.318-8.428-1.131 8.443-2.208-0.364 0.488 2.107-7.896 1.326 7.912 1.124-0.365 2.169 2.108-0.448 1.092 8.021 1.357-8.036 2.229 0.442-0.509-2.185 7.65-1.125-7.666-1.324z"></path>
    </symbol>


    <symbol id="forest" viewBox="0 0 41 32" alt="forest">
<title>forest</title>
<path d="M21.429 19.608h4.739l-5.732-6.587h4.623l-5.609-6.066h3.522l-8.674-6.913-8.74 6.913h3.85l-6.002 6.066h4.71l-6.536 6.587h5.873l-7.373 7.24h11.414v5.087h5.544v-5.087h11.218l-6.826-7.24z"></path>
<path d="M40.647 27.304l-6.826-7.24h4.739l-5.732-6.587h4.623l-5.609-6.066h3.522l-8.674-6.913-5.597 4.428 3.119 2.486-3.098 0.098 5.185 5.968h-4.623l5.732 6.587h-4.739l6.795 7.207h-4.828v4.696h5.544v-4.663h10.468z"></path>
</symbol>

<symbol id="lantern" viewBox="0 0 17 32" alt="lantern">
<title>lantern</title>
<path d="M17.18 8.102c-0.265-4.534-4.007-8.111-8.584-8.111-4.748 0-8.597 3.849-8.597 8.597 0 0.355 0.021 0.704 0.063 1.047l-0.004-0.041v4.219h0.975l2.195 12.474h-0.838v5.712h12.415v-5.712h-0.591l1.807-12.474h1.174v-5.712zM8.597 2.39c3.254 0 5.923 2.504 6.186 5.69l0.002 0.022h-12.376c0.265-3.208 2.934-5.712 6.188-5.712v0zM13.861 26.288h-10.278l-2.194-12.474h14.277z"></path>
<path d="M5.727 24.836c0.35 0.168 0.851 0.152 1.085 0.15 0.772-0.003 1.259-0.785 1.33-0.903 0.341-0.566 0.333-1.261 0.317-2.651-0.008-0.682-0.071-1.127-0.222-1.552-0.087-0.246-0.214-0.512-0.269-0.628-0.198-0.418-0.331-0.613-0.459-0.845-0.466-0.843-0.53-1.555-0.617-1.532-0.075 0.020 0.029 0.52-0.048 1.316-0.065 0.605-0.193 1.158-0.38 1.683l0.016-0.051c-0.139 0.427-0.22 0.675-0.396 0.982-0.268 0.466-0.408 0.459-0.681 0.942-0.141 0.248-0.321 0.572-0.396 1.041-0.042 0.262-0.128 0.778 0.095 1.218 0.18 0.355 0.148 0.601 0.625 0.83z"></path>
<path d="M7.985 18.003c0.371 0.769 0.413 0.692 0.624 1.186 0.22 0.487 0.382 1.053 0.457 1.645l0.003 0.030c0.044 0.358 0.029 0.754 0 1.543-0.029 0.779-0.015 0.941-0.178 1.487-0.131 0.44 0 0-0.223 0.621-0.114 0.318 0.252 0.637 0.401 0.753 0.6 0.466 1.763-0.199 2.421-1.111 0.051-0.071 1.007-1.437 0.772-3.162-0.268-1.968-1.929-3.278-2.451-3.689-0.408-0.324-0.751-0.502-1.173-1.054-0.62-0.81-0.853-1.69-1.025-1.619-0.023 0.009-0.072 0.047-0.117 0.828-0.036 0.607-0.054 0.91-0.030 1.129 0.045 0.428 0.203 0.761 0.518 1.412z"></path>
</symbol>


<symbol id="tent" viewBox="0 0 44 32" alt="tent">
<title>tent</title>
<path d="M0 32h6.731l4.851-11.677 4.594 11.677h6.939l-11.558-20.018-11.558 20.018z"></path>
<path d="M12.046 11.513l19.708-11.516 11.786 20.169-19.708 11.516-11.786-20.169z"></path>
</symbol>

    </svg>
