<svg id="campfire" xmlns="http://www.w3.org/2000/svg" viewBox="0 0 30 32">
<title>campfire</title>
<defs>
  <style>
    <defs>
      <style>
        @keyframes color {
    0% {fill: red;}
    50% {fill: orange;}
    100% {fill: yellow;}
        }

        #lflame {
        animation: color 5s linear infinite alternate forwards;
        }

        #sflame{
        animation: color 5s linear infinite alternate-reverse forwards;
        }

    
      </style>
    </defs>
  </style>
</defs>
<path id="sflame" d="M8.54 18.315c0.797 0.304 1.935 0.27 2.468 0.27 1.756-0.006 2.864-1.41 3.026-1.621 0.777-1.016 0.757-2.263 0.72-4.759-0.018-1.223-0.161-2.023-0.504-2.784-0.199-0.441-0.487-0.92-0.612-1.128-0.452-0.75-0.754-1.1-1.044-1.516-1.060-1.513-1.206-2.79-1.405-2.749-0.169 0.034 0.068 0.934-0.108 2.361-0.156 1.279-0.555 2.263-0.829 2.926-0.316 0.766-0.5 1.212-0.901 1.762-0.608 0.838-0.924 0.825-1.549 1.692-0.321 0.445-0.731 1.026-0.901 1.868-0.095 0.471-0.29 1.395 0.216 2.185 0.409 0.64 0.337 1.081 1.423 1.492z"></path>
<path id="lflame" d="M13.674 6.053c0.843 1.381 0.94 1.242 1.419 2.128 0.259 0.479 0.821 1.54 1.047 3.006 0.099 0.643 0.068 1.351 0 2.77-0.065 1.397-0.034 1.689-0.405 2.668-0.3 0.789 0 0-0.507 1.115-0.259 0.57 0.574 1.144 0.912 1.351 1.365 0.838 4.010-0.357 5.506-1.993 0.117-0.128 2.289-2.579 1.756-5.675-0.608-3.532-4.388-5.883-5.573-6.62-0.935-0.582-1.708-0.901-2.668-1.892-1.41-1.452-1.94-3.031-2.331-2.905-0.052 0.017-0.164 0.084-0.27 1.486-0.083 1.090-0.124 1.634-0.068 2.027 0.11 0.765 0.469 1.365 1.182 2.533z"></path>
<path id="wood1" d="M24.556 24.557l4.953-1.521-1.676-5.457-12.359 3.795 9.082 3.183z"></path>
<path id="wood2" d="M14.213 21.208l0.001-0.004-11.8-4.044-1.837 5.36 27.53 9.479 1.812-5.287-15.707-5.504z"></path>
<path id="wood3" d="M0 26.126l1.676 5.457 12.955-3.978-9.174-3.154-5.456 1.675z"></path>
</svg>
