<svg id="campfire" data-name="Layer 1" xmlns="http://www.w3.org/2000/svg" viewBox="0 0 885.79 947.36">
  <title>campfire</title>
  <g>
    <path d="M263,559c23.61,9,57.29,8,73.06,8,52-.18,84.8-41.73,89.59-48,23-30.07,22.41-67,21.32-140.88-.53-36.22-4.77-59.89-14.93-82.43-5.88-13.06-14.41-27.23-18.13-33.4-13.37-22.2-22.31-32.57-30.92-44.87-31.39-44.8-35.69-82.61-41.6-81.39-5,1,2,27.64-3.2,69.91-4.63,37.87-16.42,67-24.53,86.62-9.36,22.68-14.8,35.87-26.66,52.17-18,24.82-27.34,24.41-45.86,50.09-9.5,13.18-21.63,30.37-26.66,55.31-2.81,13.94-8.6,41.31,6.4,64.69C233,533.78,230.87,546.82,263,559Z" transform="translate(-10.18 -16.79)"/>
    <path d="M415,196c24.95,40.89,27.83,36.77,42,63,7.66,14.18,24.3,45.6,31,89,2.94,19.05,2,40,0,82-1.93,41.37-1,50-12,79-8.87,23.37,0,0-15,33-7.67,16.86,17,33.86,27,40,40.41,24.82,118.73-10.58,163-59,3.47-3.8,67.77-76.35,52-168C685,250.44,573.1,180.83,538,159c-27.69-17.22-50.57-26.68-79-56-41.75-43-57.43-89.72-69-86-1.54.5-4.84,2.48-8,44-2.45,32.26-3.68,48.38-2,60C383.27,143.66,393.89,161.41,415,196Z" transform="translate(-10.18 -16.79)"/>
    <polygon points="726.99 727 873.63 681.96 824.02 520.41 458.12 632.77 726.99 727"/>
    <polygon points="420.79 627.87 420.82 627.76 71.48 508.05 17.11 666.73 829.78 946.13 829.65 946.51 832.15 947.36 885.79 790.83 420.79 627.87"/>
    <polygon points="0 773.45 49.61 935.01 433.14 817.23 161.53 723.85 0 773.45"/>
  </g>
</svg>
