<svg id="compass" data-name="Layer 1" xmlns="http://www.w3.org/2000/svg" viewBox="0 0 1602 1734">
  <title>compass</title>
  <g>
    <path d="M935.94,155.94C979,142.17,1007,119.56,1007,94c0-42-75.66-76-169-76S669,52,669,94c0,25.56,28,48.17,71.06,61.94C343.88,204.24,37,541.78,37,951c0,442.38,358.62,801,801,801s801-358.62,801-801C1639,541.78,1332.12,204.24,935.94,155.94ZM837.5,1649C451.73,1649,139,1336.27,139,950.5S451.73,252,837.5,252,1536,564.73,1536,950.5,1223.27,1649,837.5,1649Z" transform="translate(-37 -18)"/>
    <polygon points="966.58 861.01 987.57 750.89 872.13 767.77 800.69 311.1 739.41 768.63 619.75 748.9 646.18 863.08 218.33 934.91 647.04 995.8 627.26 1113.33 741.49 1089.03 800.69 1523.64 874.2 1088.17 995.01 1112.13 967.43 993.72 1381.98 932.78 966.58 861.01"/>
  </g>
</svg>
