<svg id="forest" data-name="Layer 1" xmlns="http://www.w3.org/2000/svg" viewBox="0 0 624.38 490.64">
  <title>forest</title>
  <g>
    <polygon points="328.56 300.64 401.22 300.64 313.33 199.64 384.22 199.64 298.22 106.64 352.22 106.64 219.22 0.64 85.22 106.64 129.56 106.64 144.25 106.64 52.22 199.64 110.92 199.64 124.44 199.64 24.22 300.64 114.27 300.64 1.22 411.64 176.22 411.64 176.22 489.64 261.22 489.64 261.22 411.64 433.22 411.64 328.56 300.64" stroke="#000" stroke-miterlimit="10"/>
    <polygon points="623.22 418.64 518.56 307.64 591.22 307.64 503.33 206.64 574.22 206.64 488.22 113.64 542.22 113.64 409.22 7.64 323.4 75.53 371.22 113.64 323.72 115.14 403.22 206.64 332.33 206.64 420.22 307.64 347.56 307.64 451.75 418.14 377.72 418.14 377.72 490.14 462.72 490.14 462.72 418.64 623.22 418.64" stroke="#000" stroke-miterlimit="10"/>
  </g>
</svg>
