<svg id="lantern" data-name="Layer 1" xmlns="http://www.w3.org/2000/svg" viewBox="0 0 295 549">
  <title>lantern</title>
  <g>
    <path d="M308.75,149A147.5,147.5,0,1,0,15,174.61V247H31.73L69.38,461H55v98H268V461H257.86l31-214H309V149ZM161.5,51a106.5,106.5,0,0,1,106.16,98H55.34A106.5,106.5,0,0,1,161.5,51Zm90.3,410H75.47L37.83,247H282.77Z" transform="translate(-14 -10)"/>
    <path d="M112.25,436.09c6,2.89,14.6,2.6,18.62,2.58,13.25-.05,21.6-13.47,22.82-15.5,5.85-9.71,5.72-21.63,5.44-45.49-.14-11.7-1.22-19.34-3.81-26.62-1.49-4.22-3.67-8.79-4.62-10.78-3.4-7.17-5.68-10.52-7.88-14.49-8-14.47-9.09-26.68-10.59-26.29-1.29.34.5,8.93-.82,22.58a124.9,124.9,0,0,1-6.25,28c-2.39,7.33-3.77,11.58-6.79,16.85-4.6,8-7,7.88-11.69,16.17-2.42,4.26-5.51,9.81-6.79,17.86-.72,4.5-2.19,13.34,1.63,20.89C104.61,427.94,104.06,432.16,112.25,436.09Z" transform="translate(-14 -10)"/>
    <path d="M151,318.87c6.36,13.2,7.09,11.87,10.7,20.34a103.05,103.05,0,0,1,7.9,28.74c.75,6.15.5,12.93,0,26.48-.49,13.36-.25,16.15-3.06,25.51-2.25,7.55,0,0-3.82,10.66-1.95,5.45,4.33,10.93,6.88,12.92,10.3,8,30.25-3.42,41.54-19.06.88-1.22,17.27-24.65,13.25-54.25-4.59-33.76-33.1-56.24-42.05-63.29-7-5.56-12.88-8.61-20.13-18.08-10.63-13.9-14.63-29-17.58-27.77-.39.16-1.23.8-2,14.21-.62,10.41-.93,15.62-.51,19.37C142.9,302,145.6,307.7,151,318.87Z" transform="translate(-14 -10)"/>
  </g>
</svg>
