<svg id="lantern" xmlns="http://www.w3.org/2000/svg" viewBox="0 0 17 32">
<title>lantern</title>
<defs>
  <style>
    @keyframes color {
0% {fill: red;}
50% {fill: orange;}
100% {fill: yellow;}
    }

    #lflame {
    animation: color 5s linear infinite alternate forwards;
    }

    #sflame{
    animation: color 5s linear infinite alternate-reverse forwards;
    }
  </style>
</defs>
<path d="M17.18 8.102c-0.265-4.534-4.007-8.111-8.584-8.111-4.748 0-8.597 3.849-8.597 8.597 0 0.355 0.021 0.704 0.063 1.047l-0.004-0.041v4.219h0.975l2.195 12.474h-0.838v5.712h12.415v-5.712h-0.591l1.807-12.474h1.174v-5.712zM8.597 2.39c3.254 0 5.923 2.504 6.186 5.69l0.002 0.022h-12.376c0.265-3.208 2.934-5.712 6.188-5.712v0zM13.861 26.288h-10.278l-2.194-12.474h14.277z"></path>
<path id="sflame" d="M5.727 24.836c0.35 0.168 0.851 0.152 1.085 0.15 0.772-0.003 1.259-0.785 1.33-0.903 0.341-0.566 0.333-1.261 0.317-2.651-0.008-0.682-0.071-1.127-0.222-1.552-0.087-0.246-0.214-0.512-0.269-0.628-0.198-0.418-0.331-0.613-0.459-0.845-0.466-0.843-0.53-1.555-0.617-1.532-0.075 0.020 0.029 0.52-0.048 1.316-0.065 0.605-0.193 1.158-0.38 1.683l0.016-0.051c-0.139 0.427-0.22 0.675-0.396 0.982-0.268 0.466-0.408 0.459-0.681 0.942-0.141 0.248-0.321 0.572-0.396 1.041-0.042 0.262-0.128 0.778 0.095 1.218 0.18 0.355 0.148 0.601 0.625 0.83z"></path>
<path id="lflame" d="M7.985 18.003c0.371 0.769 0.413 0.692 0.624 1.186 0.22 0.487 0.382 1.053 0.457 1.645l0.003 0.030c0.044 0.358 0.029 0.754 0 1.543-0.029 0.779-0.015 0.941-0.178 1.487-0.131 0.44 0 0-0.223 0.621-0.114 0.318 0.252 0.637 0.401 0.753 0.6 0.466 1.763-0.199 2.421-1.111 0.051-0.071 1.007-1.437 0.772-3.162-0.268-1.968-1.929-3.278-2.451-3.689-0.408-0.324-0.751-0.502-1.173-1.054-0.62-0.81-0.853-1.69-1.025-1.619-0.023 0.009-0.072 0.047-0.117 0.828-0.036 0.607-0.054 0.91-0.030 1.129 0.045 0.428 0.203 0.761 0.518 1.412z"></path>
</svg>
